# xmcd CD database file
#
# Track frame offsets:
#	150
#	25985
#	50065
#	69647
#	93675
#	107970
#
# Disc length: 1650 seconds
#
# Revision: 0
# Processed by: cddbd v1.5PL3 Copyright (c) Steve Scherf et al.
# Submitted via: CDex 1.51
#
DISCID=56067006
DTITLE=サンタラ - High&Low
DYEAR=2003
DGENRE=Blues
TTITLE0=R70
TTITLE1=サイモンの季節
TTITLE2=六月のブルース
TTITLE3=サークル
TTITLE4=臆病者のブルース
TTITLE5=フラッグ
EXTD=YEAR: 2003
EXTT0=
EXTT1=
EXTT2=
EXTT3=
EXTT4=
EXTT5=
PLAYORDER=
